#tb 0: 1/25
0,          2,          2,        1,   518400, 0xe9c7643e
0,          4,          4,        1,   518400, 0xba7456ec
0,          6,          6,        1,   518400, 0xdeb96749
0,          8,          8,        1,   518400, 0xa101a986
0,         10,         10,        1,   518400, 0x3db7baa5
0,         12,         12,        1,   518400, 0xf3dfcec7
0,         14,         14,        1,   518400, 0x79b4f537
0,         16,         16,        1,   518400, 0x9e64fe68
0,         18,         18,        1,   518400, 0x0e810b53
0,         20,         20,        1,   518400, 0x20baf3b8
0,         22,         22,        1,   518400, 0x0a49d341
0,         24,         24,        1,   518400, 0xa8304ab5
0,         26,         26,        1,   518400, 0x2600e98f
0,         28,         28,        1,   518400, 0x9253e3e8
0,         30,         30,        1,   518400, 0xd6e12783
0,         32,         32,        1,   518400, 0x6894fc79
0,         34,         34,        1,   518400, 0xfb60d3e3
0,         36,         36,        1,   518400, 0x523602be
0,         38,         38,        1,   518400, 0x4979f409
0,         40,         40,        1,   518400, 0x50d4e2ab
0,         42,         42,        1,   518400, 0xa8c2140a
0,         44,         44,        1,   518400, 0x45c0bc15
0,         46,         46,        1,   518400, 0xaef78cab
0,         48,         48,        1,   518400, 0xec539d02
0,         50,         50,        1,   518400, 0x602585ea
0,         52,         52,        1,   518400, 0xda263463
0,         54,         54,        1,   518400, 0xa03d8922
0,         56,         56,        1,   518400, 0x43ea1c1d
0,         58,         58,        1,   518400, 0xb1e055a6
0,         59,         59,        1,   518400, 0x6fff9398
